<svg width="25" height="24" viewBox="0 0 25 24"  xmlns="http://www.w3.org/2000/svg">
<path fill-rule="evenodd" clip-rule="evenodd" d="M15.9391 3.69V3.52C15.9391 2.68053 15.2586 2 14.4191 2H9.8791C9.03962 2 8.3591 2.68053 8.3591 3.52V3.66C6.16781 3.84277 4.48626 5.68114 4.4991 7.88V18.52C4.49909 19.6409 4.94507 20.7158 5.73864 21.5075C6.53221 22.2992 7.60815 22.7427 8.7291 22.74H15.5791C16.7 22.7427 17.776 22.2992 18.5696 21.5075C19.3631 20.7158 19.8091 19.6409 19.8091 18.52V7.88C19.8011 5.69099 18.1206 3.87154 15.9391 3.69ZM9.87801 3.52H14.438V4.71H9.87801V3.52ZM12.2008 9.14H9.08078C8.66656 9.14 8.33078 9.47579 8.33078 9.89C8.33078 10.3042 8.66656 10.64 9.08078 10.64H12.2008C12.615 10.64 12.9508 10.3042 12.9508 9.89C12.9508 9.47579 12.615 9.14 12.2008 9.14ZM14.3908 16.69H9.08078C8.66656 16.69 8.33078 16.3542 8.33078 15.94C8.33078 15.5258 8.66656 15.19 9.08078 15.19H14.3908C14.805 15.19 15.1408 15.5258 15.1408 15.94C15.1408 16.3542 14.805 16.69 14.3908 16.69ZM9.08078 13.76H15.2208C15.635 13.76 15.9708 13.4242 15.9708 13.01C15.9708 12.5958 15.635 12.26 15.2208 12.26H9.08078C8.66656 12.26 8.33078 12.5958 8.33078 13.01C8.33078 13.4242 8.66656 13.76 9.08078 13.76Z" />
</svg>
