<svg width="25" height="24" viewBox="0 0 25 24"  xmlns="http://www.w3.org/2000/svg">
<path fill-rule="evenodd" clip-rule="evenodd" d="M22.4978 5.80357L22.4978 18.2446C22.5411 20.2726 20.9259 21.9527 18.8876 22L6.11129 21.9326C4.07137 21.88 2.45772 20.1972 2.50103 18.1676L2.50105 5.76504C2.47767 4.7894 2.84497 3.8445 3.52208 3.13836C4.1992 2.43222 5.13062 2.02272 6.11131 2L18.8876 2.00001C19.8752 2.02258 20.8126 2.4374 21.4909 3.15195C22.1691 3.8665 22.5317 4.82136 22.4978 5.80357ZM9.39247 13.0544L11.667 15.298L11.667 7.27683C11.667 6.81948 12.0397 6.44873 12.4994 6.44873C12.9591 6.44873 13.3318 6.81948 13.3318 7.27684L13.3318 15.3269L15.6064 13.0544C15.7626 12.898 15.9751 12.81 16.1968 12.81C16.4185 12.81 16.631 12.898 16.7872 13.0544C16.9494 13.2072 17.0413 13.4196 17.0413 13.6418C17.0413 13.864 16.9494 14.0764 16.7872 14.2292L13.0898 17.9076C12.7622 18.2281 12.2367 18.2281 11.909 17.9076L8.21163 14.2292C8.04944 14.0764 7.95755 13.864 7.95755 13.6418C7.95755 13.4196 8.04944 13.2072 8.21163 13.0544C8.36788 12.898 8.58039 12.81 8.80205 12.81C9.02371 12.81 9.23622 12.898 9.39247 13.0544Z" />
</svg>
