<svg width="25" height="24" viewBox="0 0 25 24"  xmlns="http://www.w3.org/2000/svg">
<path d="M13.7398 15.6206L10.3298 16.3506C10.1968 16.3652 10.0627 16.3652 9.92976 16.3506C9.45674 16.3547 9.00222 16.1671 8.66976 15.8306C8.24249 15.3923 8.06567 14.7678 8.19976 14.1706L8.92976 10.7706C9.08484 10.1021 9.43251 9.49364 9.92976 9.02062L15.6298 3.32062L6.62976 3.32062C5.5144 3.30706 4.44077 3.74416 3.65203 4.53289C2.8633 5.32163 2.42621 6.39526 2.43976 7.51062L2.43976 17.8606C2.43976 20.1471 4.2933 22.0006 6.57976 22.0006H16.9398C19.2262 22.0006 21.0798 20.1471 21.0798 17.8606L21.0798 9.07062L15.4998 14.6606C15.0193 15.1454 14.4075 15.4791 13.7398 15.6206Z"  />
<path fill-rule="evenodd" clip-rule="evenodd" d="M17.2693 3.11014C18.4266 1.7824 20.436 1.63091 21.7793 2.77014C22.3423 3.41841 22.6231 4.26471 22.5593 5.12097C22.4954 5.97723 22.0922 6.77252 21.4393 7.33014L14.7693 14.0001C14.4175 14.3329 13.976 14.5554 13.4993 14.6401L10.1193 15.4001C9.84122 15.4812 9.54116 15.3993 9.34276 15.1883C9.14437 14.9772 9.08121 14.6727 9.17931 14.4001L9.90931 11.0001C10.0208 10.537 10.2599 10.1144 10.5993 9.78014L17.2693 3.11014ZM17.6793 7.77014L19.9193 5.53014C20.1947 5.23463 20.1865 4.77413 19.9009 4.48851C19.6153 4.2029 19.1548 4.19478 18.8593 4.47014L16.6193 6.71014C16.3269 7.00295 16.3269 7.47732 16.6193 7.77014C16.9121 8.06259 17.3865 8.06259 17.6793 7.77014Z" />
</svg>
