<svg id="Layer_1" data-name="Layer 1" fill='rgba(255, 255, 255, 0.46)' xmlns="http://www.w3.org/2000/svg" viewBox="0 0 256 256"><path d="M44.55,246.84H213.07a25.8,25.8,0,0,0,25.63-26V125.72a25.4,25.4,0,0,0-25.63-25.58H87.5V65.44c11.7-4,18.89-14.48,18.89-26.84a28.45,28.45,0,1,0-56.89,0c0,12.36,8.3,22.85,19.1,26.84v34.7h-24c-14.3,0-27.25,11.28-27.25,25.58V220.8C17.3,235.1,30.25,246.84,44.55,246.84ZM184.7,227H71.3v-25.2H184.7Zm-30.6-102.6h51.3v49.5H154.1ZM63.19,38.6A14.67,14.67,0,1,1,77.86,53.27,14.67,14.67,0,0,1,63.19,38.6ZM50.6,124.44h51.3v49.5H50.6Z"/></svg>