<svg width="22" height="22" viewBox="0 0 22 22" fill="none" xmlns="http://www.w3.org/2000/svg">
<path fill-rule="evenodd" clip-rule="evenodd" d="M10.8072 1.83398C5.85297 1.83904 1.83806 5.85395 1.83301 10.8082C1.83301 15.7644 5.85088 19.7823 10.8072 19.7823C15.7635 19.7823 19.7813 15.7644 19.7813 10.8082C19.7763 5.85395 15.7614 1.83904 10.8072 1.83398ZM10.8072 18.4073C6.61027 18.4073 3.20801 15.0051 3.20801 10.8082C3.20801 6.61125 6.61027 3.20898 10.8072 3.20898C15.0041 3.20898 18.4063 6.61125 18.4063 10.8082C18.4013 15.003 15.002 18.4023 10.8072 18.4073ZM10.8072 7.37065C10.4556 7.41118 10.1903 7.70884 10.1903 8.06273C10.1903 8.41663 10.4556 8.71429 10.8072 8.75482C10.9919 8.75738 11.1697 8.6845 11.2994 8.55302C11.4292 8.42153 11.4997 8.24281 11.4947 8.05815C11.4897 7.68052 11.1848 7.37559 10.8072 7.37065ZM10.8072 10.0107C10.6241 10.0082 10.4478 10.0798 10.3183 10.2093C10.1888 10.3387 10.1172 10.5151 10.1197 10.6982V13.5582C10.1197 13.9378 10.4275 14.2457 10.8072 14.2457C11.1869 14.2457 11.4947 13.9378 11.4947 13.5582V10.7165C11.4996 10.531 11.4294 10.3514 11.2999 10.2185C11.1704 10.0855 10.9927 10.0106 10.8072 10.0107Z" fill="#B3B4BD"/>
</svg>
