<svg width="25" height="24" viewBox="0 0 25 24"  xmlns="http://www.w3.org/2000/svg">
<path fill-rule="evenodd" clip-rule="evenodd" d="M10.4828 4.8119H5.91216C4.57228 4.8127 3.30985 5.44001 2.5 6.50745V5.39112C2.50279 4.48896 2.86385 3.62485 3.50376 2.98889C4.14366 2.35294 5.00999 1.99723 5.91216 2.00003H10.4828C10.9929 1.99723 11.4832 2.19793 11.8449 2.55768C12.2066 2.91744 12.41 3.40656 12.41 3.91673C12.4158 4.977 13.277 5.83346 14.3372 5.83344H18.8868C20.7614 5.8276 22.2873 7.33945 22.2989 9.214V10.3409C21.4891 9.27342 20.2267 8.64611 18.8868 8.64531H14.3162C14.0236 8.64603 13.7439 8.52501 13.5442 8.31126C13.3444 8.09752 13.2426 7.8103 13.263 7.51846C13.2547 6.79039 12.9568 6.09561 12.435 5.58772C11.9133 5.07983 11.2108 4.80065 10.4828 4.8119ZM22.32 19.1345V12.8157C22.3084 10.9412 20.7824 9.42932 18.9078 9.43516H14.3372C13.277 9.43518 12.4158 8.57872 12.41 7.51846C12.41 7.00828 12.2066 6.51916 11.8449 6.1594C11.4832 5.79965 10.9929 5.59895 10.4828 5.60175H5.91216C4.03758 5.59591 2.5116 7.10776 2.5 8.98231V19.1345C2.50279 20.0367 2.86385 20.9008 3.50376 21.5368C4.14366 22.1727 5.00999 22.5284 5.91216 22.5256H18.9078C19.81 22.5284 20.6763 22.1727 21.3162 21.5368C21.9561 20.9008 22.3172 20.0367 22.32 19.1345Z" />
</svg>
