<svg width="19" height="19" viewBox="0 0 19 19" fill="none" xmlns="http://www.w3.org/2000/svg">
<path fill-rule="evenodd" clip-rule="evenodd" d="M9.80717 0.833984C4.85297 0.839037 0.838061 4.85395 0.833008 9.80815C0.833008 14.7644 4.85088 18.7823 9.80717 18.7823C14.7635 18.7823 18.7813 14.7644 18.7813 9.80815C18.7763 4.85395 14.7614 0.839037 9.80717 0.833984ZM9.80717 17.4073C5.61027 17.4073 2.20801 14.0051 2.20801 9.80815C2.20801 5.61125 5.61027 2.20898 9.80717 2.20898C14.0041 2.20898 17.4063 5.61125 17.4063 9.80815C17.4013 14.003 14.002 17.4023 9.80717 17.4073ZM9.80717 6.37065C9.45561 6.41118 9.19029 6.70884 9.19029 7.06273C9.19029 7.41663 9.45561 7.71429 9.80717 7.75482C9.99189 7.75738 10.1697 7.6845 10.2994 7.55302C10.4292 7.42153 10.4997 7.24281 10.4947 7.05815C10.4897 6.68052 10.1848 6.37559 9.80717 6.37065ZM9.80717 9.01065C9.62409 9.00816 9.44777 9.07979 9.31829 9.20927C9.18882 9.33874 9.11718 9.51506 9.11967 9.69815V12.5582C9.11967 12.9378 9.42748 13.2457 9.80717 13.2457C10.1869 13.2457 10.4947 12.9378 10.4947 12.5582V9.71649C10.4996 9.53099 10.4294 9.35138 10.2999 9.21845C10.1704 9.08553 9.99273 9.01059 9.80717 9.01065Z" fill="#B3B4BD"/>
</svg>
