<svg width="16" height="16" viewBox="0 0 16 16" fill="none" xmlns="http://www.w3.org/2000/svg">
<path fill-rule="evenodd" clip-rule="evenodd" d="M14.4694 13.5196L10.8831 9.93326C11.583 9.03087 11.9997 7.89775 11.9997 6.66732C11.9997 3.7218 9.61186 1.33398 6.66634 1.33398C3.72082 1.33398 1.33301 3.7218 1.33301 6.66732C1.33301 9.61284 3.72082 12.0007 6.66634 12.0007C7.89678 12.0007 9.02989 11.584 9.93229 10.884L13.5187 14.4704C13.7812 14.733 14.2069 14.733 14.4694 14.4704C14.732 14.2079 14.732 13.7822 14.4694 13.5196ZM10.6663 6.66732C10.6663 8.87646 8.87548 10.6673 6.66634 10.6673C4.4572 10.6673 2.66634 8.87646 2.66634 6.66732C2.66634 4.45818 4.4572 2.66732 6.66634 2.66732C8.87548 2.66732 10.6663 4.45818 10.6663 6.66732Z" fill="#BBBCC4"/>
</svg>
